<svg width="1080" height="288" viewBox="0 0 1080 288" fill="none" xmlns="http://www.w3.org/2000/svg">
<ellipse cx="996" cy="204" rx="60" ry="60" fill="#FA541C"/>
<path d="M712 264H653.185L554.815 115.966V264H496V24H554.815L653.185 172.718V24H712V264Z" fill="white"/>
<path d="M801.265 70.8376V119.385H880V164.513H801.265V217.162H888V264H744V24H888V70.8376H801.265Z" fill="white"/>
<path d="M344.333 264C322.333 264 302.111 258.882 283.667 248.645C265.444 238.409 250.889 224.167 240 205.919C229.333 187.449 224 166.754 224 143.833C224 120.912 229.333 100.328 240 82.0807C250.889 63.8331 265.444 49.5911 283.667 39.3547C302.111 29.1182 322.333 24 344.333 24C366.333 24 386.444 29.1182 404.667 39.3547C423.111 49.5911 437.556 63.8331 448 82.0807C458.667 100.328 464 120.912 464 143.833C464 166.754 458.667 187.449 448 205.919C437.333 224.167 422.889 238.409 404.667 248.645C386.444 258.882 366.333 264 344.333 264ZM344.333 211.928C363 211.928 377.889 205.697 389 193.235C400.333 180.773 406 164.306 406 143.833C406 123.138 400.333 106.67 389 94.4311C377.889 81.9694 363 75.7385 344.333 75.7385C325.444 75.7385 310.333 81.8581 299 94.0973C287.889 106.337 282.333 122.915 282.333 143.833C282.333 164.529 287.889 181.107 299 193.569C310.333 205.808 325.444 211.928 344.333 211.928Z" fill="white"/>
<path d="M89.7097 216.137H192V264H24V219.556L125.613 71.8632H24V24H192V68.4444L89.7097 216.137Z" fill="white"/>
</svg>
